PathFileType	4	(X/Y/Z)	C:/Users/beibeiliu/ov580/test_trc\sequence.17_training_dense_left.trc
DataRate	CameraRate	NumFrames	NumMarkers	Units	OrigDataRate	OrigDataStartFrame	OrigNumFrames
120	120	24	19	mm	120	1	50
Frame#	Time	ThumbCMC			ThumbMCP			ThumbIP			ThumbTip			IndexMCP			IndexPIP			IndexTip			MiddleMCP			MiddlePIP			MiddleTip			RingMCP			RingPIP			RingTip			PinkyMCP			PinkyPIP			PinkyTip			BackHand1			BackHand2			BackHand3	
		X0	Y0	Z0	X1	Y1	Z1	X2	Y2	Z2	X3	Y3	Z3	X4	Y4	Z4	X5	Y5	Z5	X6	Y6	Z6	X7	Y7	Z7	X8	Y8	Z8	X9	Y9	Z9	X10	Y10	Z10	X11	Y11	Z11	X12	Y12	Z12	X13	Y13	Z13	X14	Y14	Z14	X15	Y15	Z15	X16	Y16	Z16	X17	Y17	Z17	X18	Y18	Z18	
0	0	-191.036	39.2702	121.389	-164.846	58.3243	107.246	-145.962	67.73	85.9333	-122.622	53.4495	68.6031	-171.856	24.8348	50.7734	-160.718	36.1174	30.8964	-144.149	44.7492	6.63698	-144.785	23.9687	58.9188	-125.126	45.3488	73.1527	-142.345	39.3692	105.685	-130.295	18.3379	72.4265	-121.049	36.9121	92.1211	-143.523	29.7628	117.557	-120.144	4.5031	86.2419	-117.779	23.532	105.377	-145.669	20.0867	123.001	-167.714	-19.7579	95.2285	-182.15	-24.414	129.265	-196.289	-0.332242	105.717	
1	0.00833333	-203.534	24.1747	115.675	-185.297	46.6912	97.1959	-167.693	50.2342	76.8813	-144.939	42.5278	59.589	-188.535	5.45774	45.602	-179.221	15.1749	21.1709	-166.492	22.9744	-1.94132	-160.312	11.9351	51.9055	-144.588	34.4235	61.4487	-157.529	29.8425	98.3636	-142.264	3.58012	66.1333	-138.473	28.7292	82.7783	-160.714	18.2368	111.908	-135.687	-7.04203	78.9252	-132.482	19.2045	98.5332	-153.426	12.6414	119.068	-173.89	-33.5384	99.2275	-186.632	-35.3046	127.553	-204.804	-14.6218	104.609	
2	0.0166667	-214.052	12.1275	116.415	-199.271	32.8783	95.6516	-183.04	39.436	66.6407	-165.526	30.6281	54.9363	-207.511	-8.10535	41.2511	-198.502	-3.57023	21.4461	-193.073	4.28307	-2.41683	-175.984	-6.12902	49.9241	-162.013	22.2073	55.7938	-172.65	22.4544	90.8581	-162.021	-8.09396	60.856	-154.913	19.6107	78.7837	-170.61	8.90796	106.282	-146.138	-16.2609	72.2637	-143.759	10.2214	88.9173	-163.793	3.74495	110.817	-181.264	-45.3851	99.5845	-191.089	-42.9968	129.363	-212.51	-28.3986	109.918	
3	0.025	-224.532	9.80501	111.956	-207.852	25.5177	90.9345	-196.296	30.2918	64.9332	-180.469	22.3004	49.247	-222.76	-18.8741	44.3525	-220.936	-11.8253	18.9371	-210.128	-10.899	-0.436947	-196.026	-15.7342	49.1393	-177.708	12.9762	51.8737	-183.315	12.6256	87.2628	-177.539	-15.3707	56.5063	-167.2	10.5864	71.3739	-179.864	7.23379	98.8778	-165.765	-25.4296	69.6701	-159.703	3.49238	79.082	-174.268	-0.0193274	107.982	-194.332	-49.4472	98.4829	-197.046	-48.8586	131.122	-224.532	-32.5337	110.564	
4	0.0333333	-225.734	10.2625	118.041	-211.024	25.5968	88.335	-202.886	31.2052	63.2321	-188.6	16.7091	43.0023	-241.474	-16.563	51.4305	-238.316	-13.3883	27.2613	-233.946	-9.88852	2.01661	-211.827	-14.6197	44.9531	-192.173	10.1104	50.2646	-192.356	12.1581	82.8072	-188.581	-22.4756	56.3374	-178.671	6.7181	67.5832	-188.247	1.66122	99.0572	-174.82	-30.0334	65.9186	-171	-3.39576	73.8611	-182.291	-3.29549	105.424	-208.747	-51.6201	101.183	-212.23	-45.0852	131.496	-233.603	-28.8564	114.73	
5	0.0416667	-223.765	19.996	116.249	-207.198	31.1582	90.4767	-200.663	32.8258	61.4571	-191.341	18.3131	41.498	-250.725	-0.276052	56.864	-246.022	0.379022	27.0994	-244.379	4.73538	5.61822	-219.5	-8.64139	47.761	-197.63	12.5565	47.2219	-193.279	12.1289	83.1369	-199.845	-18.8706	55.5495	-180.71	5.52514	66.2066	-187.121	4.98573	96.4741	-189.811	-28.201	64.2289	-176.661	-4.81532	71.4536	-185.673	-3.86395	103.529	-223.697	-40.3983	105.604	-219.025	-37.9744	134.569	-241.93	-13.1881	119.41	
6	0.05	-214.537	36.5456	119.376	-195.515	44.0042	91.6612	-188.424	42.3977	68.2425	-186.7	26.5018	46.0953	-246.342	21.8708	54.445	-244.847	28.6964	34.1609	-240.077	28.1519	7.96132	-220.068	8.42914	48.4065	-194.997	22.3062	46.7044	-189.201	20.958	85.7759	-208.65	-3.97461	57.1083	-180.428	9.66957	63.7504	-187.529	12.7095	99.1984	-195.445	-20.4936	63.1675	-176.009	-0.387186	76.9408	-186.7	0.520112	105.459	-230.795	-21.5124	105.482	-225.411	-25.3808	135.72	-241.163	3.76348	122.654	
7	0.0583333	-195.359	43.5369	128.041	-175.041	47.1211	98.9562	-169.768	48.5199	67.5558	-172.42	33.1898	45.9656	-231.36	46.9437	59.5285	-226.313	54.4285	33.613	-223.086	51.9881	11.4919	-210.381	26.7152	51.1315	-181.488	28.4118	50.4721	-179.854	27.3086	90.1951	-202.776	9.55869	57.1882	-172.019	9.47143	66.9146	-177.841	11.34	99.014	-195.621	-9.71597	61.045	-173.383	-0.645027	75.1025	-186.04	2.8901	107.603	-231.518	-9.05264	104.173	-227.687	-11.279	132.982	-233.01	25.1175	124.294	
8	0.0666667	-172.528	40.6597	128.754	-153.495	37.8661	100.375	-148.82	37.2578	74.4391	-157.668	25.0561	49.3621	-203.599	59.8651	65.8822	-196.803	65.6442	37.1393	-190.014	69.1609	12.5775	-193.734	34.9512	56.4914	-162.298	21.9825	55.9911	-163.617	19.8218	91.3696	-188.902	13.1419	58.318	-161.555	4.37542	70.018	-170.139	10.5645	103.647	-194.522	-6.73474	64.3059	-167.161	-5.67019	77.0036	-177.949	-0.144201	109.605	-223.373	8.79183	104.313	-221.482	-0.329787	136.66	-212.415	34.706	127.269	
9	0.075	-152.247	28.4891	133.507	-129.073	21.2596	104.467	-123.064	19.0664	79.0998	-137.183	8.85817	56.8794	-169.792	58.5969	67.3348	-164.758	58.9294	44.0672	-158.217	60.0636	17.6051	-168.251	31.4828	57.7086	-143.493	11.9426	58.2388	-147.31	6.91012	93.6966	-171.101	11.2167	61.436	-151.639	-9.73567	72.9225	-159.234	-1.19213	106.419	-185.237	-3.69424	69.2944	-160.234	-16.5577	84.1565	-169.766	-5.30774	111.498	-210.821	15.5445	106.249	-211.291	10.5708	134.992	-189.588	38.911	130.428	
10	0.0833333	-133.26	16.6245	135.029	-115.811	0.750079	110.11	-110.247	-5.33297	82.6677	-122.89	-12.0775	57.8133	-143.502	43.7526	67.1896	-133.518	44.8653	45.517	-128.643	42.098	17.4239	-147.757	15.5791	59.0331	-130.54	-7.81599	62.5432	-138.293	-11.8273	98.3282	-161.724	-4.81804	65.2646	-143.144	-25.0903	78.9981	-149.28	-12.1974	112.634	-173.559	-11.5058	73.0058	-153.312	-28.9647	89.5686	-161.434	-14.0292	115.955	-194.362	16.6893	107.734	-195.795	13.1992	135.422	-170.418	34.5336	129.861	
11	0.0916667	-123.336	1.51609	141.333	-100.417	-16.8683	118.783	-94.8874	-25.6876	91.9503	-109.659	-32.7482	69.6341	-121.094	25.5732	68.5828	-110.725	22.9001	45.4501	-107.079	19.1865	23.6956	-131.817	-2.90932	64.9017	-118.213	-32.0329	71.866	-126.505	-24.7832	108.961	-147.306	-19.8338	71.5118	-130.424	-40.0426	87.7341	-139.232	-28.1487	118.777	-155.27	-28.1449	77.7863	-143.59	-42.2134	96.7186	-153.51	-23.2236	124.565	-178.736	10.1092	105.771	-185.114	8.24243	136.952	-149.885	24.779	128.637	
12	0.1	-113.896	-0.899284	142.215	-95.4115	-23.1626	127.248	-81.7857	-36.0414	104.183	-91.2769	-46.2197	79.388	-104.176	11.2448	70.8098	-91.5182	6.20268	51.8039	-86.3483	-0.546999	31.3392	-113.245	-18.3031	71.0102	-102.739	-44.7897	85.8334	-114.465	-34.9777	117.037	-131.805	-35.7859	78.1248	-115.253	-49.4013	102.69	-128.084	-31.5755	127.31	-146.206	-41.8286	85.4215	-131.933	-52.6449	108.314	-140.758	-26.9512	131.726	-161.454	0.883912	105.3	-173.585	4.05779	138.381	-142.209	17.7995	129.987	
13	0.108333	-113.056	10.7674	149.29	-85.6806	-8.7152	134.148	-71.3124	-21.1624	112.812	-76.6172	-37.5391	90.2663	-104.048	13.4492	75.2624	-87.5824	9.03937	57.6615	-72.4597	-1.34422	35.3274	-103.055	-15.891	75.0404	-86.7088	-34.5869	94.3388	-101.12	-25.3162	124.093	-114.868	-33.0726	84.799	-102.038	-43.8006	108.004	-116.635	-24.8556	132.198	-126.188	-40.9602	92.2262	-116.736	-44.9855	120.415	-130.01	-22.045	135.642	-157.634	-2.89621	105.188	-172.503	3.55265	133.644	-146.28	23.8775	129.161	
14	0.116667	-123.106	33.0296	146.201	-92.4555	21.0854	137.455	-71.3813	12.7821	118.363	-69.7844	-5.86142	96.8623	-111.606	27.8678	70.8621	-93.6563	25.3092	55.1775	-73.6179	18.3734	38.7022	-106.169	4.85793	74.8045	-79.6122	-6.15525	89.2345	-96.5483	-1.67544	124.698	-108.139	-16.6033	85.9113	-90.1855	-19.86	110.695	-108.632	-5.58612	131.732	-114.882	-32.6323	95.5728	-101.793	-29.2079	119.91	-125.476	-8.01764	138.936	-162.339	-5.80029	106.652	-173.188	0.401193	133.381	-157.503	27.1457	123.164	
15	0.125	-141.705	48.6405	140.537	-108.082	47.9718	129.811	-84.6801	46.7333	109.595	-74.3223	30.8919	95.7272	-131.889	43.8593	67.0211	-113.111	49.0954	48.4226	-88.8002	43.9248	30.7898	-121.7	18.0729	66.4004	-86.8367	24.2081	71.39	-85.4268	27.4891	105.77	-110.456	1.93226	81.7511	-88.4086	10.6927	101.171	-107.982	16.7931	127.914	-108.748	-13.674	93.9338	-95.3023	0.104476	115.278	-120.466	11.5191	134.313	-159.657	-3.3514	105.144	-175.342	-2.74758	133.444	-171.572	29.5787	116.633	
16	0.133333	-160.609	52.3091	135.88	-125.427	62.1685	120.877	-105.548	62.8022	104.984	-89.4473	46.6634	86.5356	-151.853	42.8766	63.3291	-134.137	51.3718	39.7628	-118.103	56.0222	22.1162	-136.954	17.501	62.0007	-106.317	27.3232	48.2837	-83.448	42.7876	69.1479	-116.426	14.9082	76.836	-93.3311	28.3405	93.9464	-112.352	34.1493	123.836	-109.008	0.512126	91.2825	-96.9489	17.688	108.323	-119.766	24.166	129.431	-161.737	-7.7987	108.899	-175.248	-7.85802	131.575	-180.516	19.9695	113.82	
17	0.141667	-172.717	49.0267	130.109	-142.135	61.1948	119.274	-120.536	62.9734	99.8241	-102.251	48.5505	82.6052	-168.501	36.6027	60.6819	-154.97	43.2258	34.7902	-145.471	48.0407	14.6089	-147.924	10.622	54.9697	-127.917	19.4564	36.3663	-94.9232	35.8014	32.4519	-123.381	9.82839	72.8787	-102.613	29.3467	83.53	-118.603	41.63	112.946	-118.067	-0.556036	88.3967	-103.706	22.6711	103.972	-122.418	29.2891	124.528	-165.143	-12.4535	107.093	-175.265	-15.9128	133.771	-187.2	9.44611	115.86	
18	0.15	-184.291	41.6746	124.328	-156.308	53.352	111.381	-133.037	54.0556	86.6934	-119.76	35.9024	76.2846	-184.287	22.0075	58.2703	-179.336	28.3501	32.2504	-172.045	27.5688	8.09111	-166.16	-1.8736	54.6661	-146.112	0.975054	28.1922	-127.843	7.84776	11.9158	-139.564	-1.33179	68.8302	-115.924	21.7483	76.8192	-129.098	34.6956	107.884	-129.393	-9.9453	84.2395	-117.296	16.9625	93.3279	-132.538	26.7126	115.301	-175.449	-20.5431	109.367	-184.342	-23.8322	137.903	-195.616	0.781397	117.952	
19	0.158333	-194.464	32.5818	121.353	-168.665	47.5991	100.809	-151.04	43.3201	78.0964	-136.273	24.196	63.7332	-203.232	8.02617	50.8884	-201.238	13.1952	31.4088	-198.305	11.57	4.67044	-184.918	-14.7865	48.6469	-174.951	-11.1652	25.0378	-158.868	-12.8558	2.61459	-153.756	-11.9434	62.0899	-135.808	9.44122	66.9961	-143.371	25.0135	99.2803	-146.373	-23.413	78.7774	-129.961	2.45298	84.3752	-144.365	15.5294	110.529	-190.867	-30.7515	105.661	-195.279	-26.0958	139.568	-213.069	-1.91607	117.34	
20	0.166667	-202.946	28.7222	122.05	-177.662	39.3734	93.7453	-162.518	32.723	69.182	-151.135	9.28641	57.4169	-219.354	3.79173	55.6773	-217.702	5.47518	27.0995	-218.036	3.41318	2.13778	-203.242	-22.1835	52.184	-197.268	-20.4338	25.4564	-184.363	-25.2737	-1.51765	-173.913	-21.2027	62.1077	-148.818	1.63	66.4371	-156.293	15.8859	93.4912	-164.465	-31.004	75.9069	-146.32	-7.90033	80.5615	-158.209	8.90755	104.36	-204.976	-32.906	107.723	-208.286	-28.2773	136.443	-223.276	-6.90727	115.585	
21	0.175	-207.425	32.7195	118.604	-182.034	38.8475	97.5596	-168.819	30.4068	69.2495	-162.386	8.76224	59.1317	-229.359	11.3905	54.1785	-229.363	15.8595	30.7494	-230.725	13.1624	7.09932	-220.02	-14.4972	48.1648	-210.455	-19.3032	23.431	-201.671	-22.1598	-0.755185	-189.133	-20.4664	61.4386	-161.863	-0.963605	64.0133	-164.052	11.4716	93.686	-178.559	-28.9302	72.5697	-159.874	-7.72956	79.8676	-167.377	4.55904	104.786	-219.037	-29.041	106.812	-218.896	-25.1931	140.251	-231.682	0.641261	118.921	
22	0.183333	-203.616	38.695	123.176	-180.513	38.7949	94.1011	-169.434	31.1179	67.7664	-167.696	5.96823	53.2175	-233.769	27.8472	60.2535	-232.969	30.8176	33.7934	-233.847	29.6993	10.1319	-227.548	-1.70824	51.0552	-219.286	-9.12918	27.6152	-206.894	-12.0874	-3.96319	-199.967	-9.93442	61.1449	-168.455	-0.867361	62.2449	-169.826	14.7859	91.944	-187.587	-25.3872	71.5112	-166.371	-6.35261	81.6654	-172.37	5.47535	108.387	-227.466	-21.942	107.189	-227.59	-18.2358	141.128	-236.089	12.4443	121.193	
23	0.191667	-192.875	43.443	124.019	-169.593	38.9008	97.5123	-160.262	32.2429	74.2406	-166.418	9.25714	54.3992	-225	46.807	59.9524	-223.566	47.9218	32.0715	-224.058	49.4947	12.5046	-226.117	13.1076	49.9567	-219.29	14.3764	24.375	-205.401	8.95339	-3.96305	-198.476	-3.54412	58.1969	-167.49	6.24228	63.4648	-167.607	16.1105	94.1986	-193.2	-13.5306	69.8382	-167.524	-1.99301	80.0562	-173.419	8.87119	106.622	-227.92	-5.89529	109.528	-226.522	-6.96274	138.513	-228.352	25.8875	120.788	
